<svg width="24" height="24" viewBox="0 0 24 24" fill="none" xmlns="http://www.w3.org/2000/svg">
<path d="M39.5 -0.0629883H-6.32935V1.79301H39.5V-0.0629883Z" fill="#FE0000"/>
<path d="M39.5002 22.2021H-6.3291V24.0581H39.5002V22.2021Z" fill="#FE0000"/>
<path d="M39.5002 18.4917H-6.3291V20.3477H39.5002V18.4917Z" fill="#FE0000"/>
<path d="M39.5002 14.7812H-6.3291V16.6372H39.5002V14.7812Z" fill="#FE0000"/>
<path d="M39.5002 11.0703H-6.3291V12.9263H39.5002V11.0703Z" fill="#FE0000"/>
<path d="M39.5002 7.3584H-6.3291V9.2144H39.5002V7.3584Z" fill="#FE0000"/>
<path d="M39.5002 3.64746H-6.3291V5.50346H39.5002V3.64746Z" fill="#FE0000"/>
<path d="M39.5002 20.3462H-6.3291V22.2022H39.5002V20.3462Z" fill="white"/>
<path d="M39.5002 16.6357H-6.3291V18.4917H39.5002V16.6357Z" fill="white"/>
<path d="M39.5002 12.9248H-6.3291V14.7808H39.5002V12.9248Z" fill="white"/>
<path d="M39.5002 9.21436H-6.3291V11.0704H39.5002V9.21436Z" fill="white"/>
<path d="M39.5002 5.50391H-6.3291V7.35991H39.5002V5.50391Z" fill="white"/>
<path d="M39.5002 1.79297H-6.3291V3.64897H39.5002V1.79297Z" fill="white"/>
<path d="M12.0027 -0.0629883H-6.32935V12.925H12.0027V-0.0629883Z" fill="#0708F6"/>
<path d="M1.30449 0.493164L1.13783 1.0065H0.604492L1.04183 1.32383L0.875163 1.83716L1.30449 1.51983L1.74183 1.83716L1.57516 1.32383L2.01249 1.0065H1.47916L1.30449 0.493164Z" fill="white"/>
<path d="M4.36431 0.493164L4.19764 1.0065H3.66431L4.10164 1.32383L3.93498 1.83716L4.37231 1.51983L4.80964 1.83716L4.64297 1.32383L5.08031 1.0065H4.54698L4.36431 0.493164Z" fill="white"/>
<path d="M7.42021 0.493164L7.25354 1.0065H6.72021L7.15754 1.32383L6.99088 1.83716L7.42821 1.51983L7.86554 1.83716L7.69887 1.32383L8.13621 1.0065H7.60287L7.42021 0.493164Z" fill="white"/>
<path d="M10.0391 1.83716L10.4698 1.51983L10.9071 1.83716L10.7404 1.32383L11.1778 1.0065H10.6444L10.4698 0.493164L10.3031 1.0065H9.76978L10.2071 1.32383L10.0391 1.83716Z" fill="white"/>
<path d="M1.30449 3.0918L1.13783 3.60513H0.604492L1.04183 3.92246L0.875163 4.4358L1.30449 4.11846L1.74183 4.4358L1.57516 3.92246L2.01249 3.60513H1.47916L1.30449 3.0918Z" fill="white"/>
<path d="M4.36431 3.0918L4.19764 3.60513H3.66431L4.10164 3.92246L3.93498 4.4358L4.37231 4.11846L4.80964 4.4358L4.64297 3.92246L5.08031 3.60513H4.54698L4.36431 3.0918Z" fill="white"/>
<path d="M7.42021 3.0918L7.25354 3.60513H6.72021L7.15754 3.92246L6.99088 4.4358L7.42821 4.11846L7.86554 4.4358L7.69887 3.92246L8.13621 3.60513H7.60287L7.42021 3.0918Z" fill="white"/>
<path d="M10.4698 3.0918L10.3031 3.60513H9.76978L10.2071 3.92246L10.0404 4.4358L10.4778 4.11846L10.9151 4.4358L10.7484 3.92246L11.1858 3.60513H10.6524L10.4698 3.0918Z" fill="white"/>
<path d="M1.30449 5.6875L1.13783 6.20083H0.604492L1.04183 6.51816L0.875163 7.0315L1.30449 6.71417L1.74183 7.0315L1.57516 6.51816L2.01249 6.20083H1.47916L1.30449 5.6875Z" fill="white"/>
<path d="M4.36431 5.6875L4.19764 6.20083H3.66431L4.10164 6.51816L3.93498 7.0315L4.37231 6.71417L4.80964 7.0315L4.64297 6.51816L5.08031 6.20083H4.54698L4.36431 5.6875Z" fill="white"/>
<path d="M7.42021 5.6875L7.25354 6.20083H6.72021L7.15754 6.51816L6.99088 7.0315L7.42821 6.71417L7.86554 7.0315L7.69887 6.51816L8.13621 6.20083H7.60287L7.42021 5.6875Z" fill="white"/>
<path d="M10.4698 5.6875L10.3031 6.20083H9.76978L10.2071 6.51816L10.0404 7.0315L10.4778 6.71417L10.9151 7.0315L10.7484 6.51816L11.1858 6.20083H10.6524L10.4698 5.6875Z" fill="white"/>
<path d="M1.30449 8.28613L1.13783 8.79947H0.604492L1.04183 9.1168L0.875163 9.63014L1.30449 9.31281L1.74183 9.63014L1.57516 9.1168L2.01249 8.79947H1.47916L1.30449 8.28613Z" fill="white"/>
<path d="M4.36431 8.28613L4.19764 8.79947H3.66431L4.10164 9.1168L3.93498 9.63014L4.37231 9.31281L4.80964 9.63014L4.64297 9.1168L5.08031 8.79947H4.54698L4.36431 8.28613Z" fill="white"/>
<path d="M7.42021 8.28613L7.25354 8.79947H6.72021L7.15754 9.1168L6.99088 9.63014L7.42821 9.31281L7.86554 9.63014L7.69887 9.1168L8.13621 8.79947H7.60287L7.42021 8.28613Z" fill="white"/>
<path d="M10.4698 8.28613L10.3031 8.79947H9.76978L10.2071 9.1168L10.0404 9.63014L10.4778 9.31281L10.9151 9.63014L10.7484 9.1168L11.1858 8.79947H10.6524L10.4698 8.28613Z" fill="white"/>
<path d="M1.4765 11.3971L1.30449 10.8838L1.13783 11.3971H0.604492L1.04183 11.7145L0.875163 12.2278L1.30449 11.9105L1.74183 12.2278L1.57516 11.7145L2.01249 11.3971H1.4765Z" fill="white"/>
<path d="M4.53219 11.3971L4.36552 10.8838L4.19885 11.3971H3.66553L4.10285 11.7145L3.93619 12.2278L4.37352 11.9105L4.81085 12.2278L4.64419 11.7145L5.08152 11.3971H4.53219Z" fill="white"/>
<path d="M7.59225 11.3971L7.42559 10.8838L7.25892 11.3971H6.72559L7.16291 11.7145L6.99625 12.2278L7.43358 11.9105L7.87092 12.2278L7.70425 11.7145L8.14158 11.3971H7.59225Z" fill="white"/>
<path d="M10.6418 11.3971L10.4698 10.8838L10.3031 11.3971H9.76978L10.2071 11.7145L10.0404 12.2278L10.4778 11.9105L10.9151 12.2278L10.7484 11.7145L11.1858 11.3971H10.6418Z" fill="white"/>
<path d="M-0.218943 1.79199L-0.38561 2.30532H-0.918945L-0.481613 2.62266L-0.64828 3.13599L-0.210948 2.81866L0.22639 3.13599L0.0517222 2.62133L0.489054 2.30399H-0.0442811L-0.218943 1.79199Z" fill="white"/>
<path d="M2.83695 1.79199L2.67029 2.30532H2.13696L2.57429 2.62266L2.40762 3.13599L2.84496 2.81866L3.28229 3.13599L3.10629 2.62133L3.54362 2.30399H3.01029L2.83695 1.79199Z" fill="white"/>
<path d="M5.88701 1.79199L5.72035 2.30532H5.18701L5.62035 2.62133L5.45368 3.13466L5.88701 2.81999L6.32435 3.13732L6.16168 2.62133L6.59901 2.30399H6.06568L5.88701 1.79199Z" fill="white"/>
<path d="M8.94634 1.79199L8.77967 2.30532H8.24634L8.68368 2.62266L8.51701 3.13599L8.95435 2.81866L9.39167 3.13599L9.21701 2.62133L9.65434 2.30399H9.12101L8.94634 1.79199Z" fill="white"/>
<path d="M-0.218943 4.38916L-0.38561 4.90249H-0.918945L-0.481613 5.21983L-0.64828 5.73316L-0.210948 5.41583L0.22639 5.73316L0.0597229 5.21983L0.497055 4.90249H-0.0362803L-0.218943 4.38916Z" fill="white"/>
<path d="M2.83695 4.38916L2.67029 4.90249H2.13696L2.57429 5.21983L2.40762 5.73316L2.84496 5.41583L3.28229 5.73316L3.11562 5.21983L3.54229 4.89983H3.00896L2.83695 4.38916Z" fill="white"/>
<path d="M5.88701 4.38916L5.72035 4.90249H5.18701L5.62435 5.21983L5.45768 5.73316L5.88701 5.41583L6.32435 5.73316L6.15768 5.21983L6.59501 4.90249H6.06168L5.88701 4.38916Z" fill="white"/>
<path d="M8.94634 4.38916L8.77967 4.90249H8.24634L8.68368 5.21983L8.51701 5.73316L8.95435 5.41583L9.39167 5.73316L9.22501 5.21983L9.66234 4.90249H9.12901L8.94634 4.38916Z" fill="white"/>
<path d="M-0.218943 6.98633L-0.38561 7.49966H-0.918945L-0.481613 7.81699L-0.64828 8.33033L-0.210948 8.01299L0.22639 8.33033L0.0597229 7.81699L0.497055 7.49966H-0.0362803L-0.218943 6.98633Z" fill="white"/>
<path d="M2.83695 6.98633L2.67029 7.49966H2.13696L2.57429 7.81699L2.40762 8.33033L2.84496 8.01299L3.28229 8.33033L3.11562 7.81699L3.55296 7.49966H3.01962L2.83695 6.98633Z" fill="white"/>
<path d="M5.88701 6.98633L5.72035 7.49966H5.18701L5.62435 7.81699L5.45768 8.33033L5.88701 8.01433L6.32435 8.33166L6.15768 7.81832L6.59501 7.50099H6.06168L5.88701 6.98633Z" fill="white"/>
<path d="M8.94634 6.98633L8.77967 7.49966H8.24634L8.68368 7.81699L8.51701 8.33033L8.95435 8.01299L9.39167 8.33033L9.22501 7.81699L9.66234 7.49966H9.12901L8.94634 6.98633Z" fill="white"/>
<path d="M-0.0522767 10.0983L-0.218943 9.58496L-0.38561 10.0983H-0.918945L-0.481613 10.4156L-0.656281 10.9263L-0.218943 10.609L0.218389 10.9263L0.0517222 10.413L0.489054 10.0956L-0.0522767 10.0983Z" fill="white"/>
<path d="M3.00876 10.0983L2.84209 9.58496L2.67543 10.0983H2.14209L2.57942 10.4156L2.39942 10.9263L2.83675 10.609L3.27542 10.9263L3.10875 10.413L3.54609 10.0956L3.00876 10.0983Z" fill="white"/>
<path d="M6.05901 10.0983L5.88701 9.58496L5.72035 10.0983H5.18701L5.62435 10.4156L5.45635 10.9263L5.88701 10.6116L6.32435 10.929L6.15768 10.4156L6.59501 10.0983H6.05901Z" fill="white"/>
<path d="M9.11422 10.0983L8.94755 9.58496L8.78088 10.0983H8.24756L8.68489 10.4156L8.51022 10.9263L8.94755 10.609L9.38489 10.9263L9.21822 10.413L9.65556 10.0956L9.11422 10.0983Z" fill="white"/>
</svg>
